<svg width="155" height="24" viewBox="0 0 155 24" fill="none" xmlns="http://www.w3.org/2000/svg">
<path d="M82.923 13.1341L59.1274 22.3669L35.3319 13.1341H82.923ZM89.2978 12.3088H28.9314L59.1274 24L89.2978 12.3088Z" fill="#263238"/>
<path d="M124.294 1.65038L148.09 10.8833H100.499L124.294 1.65038ZM124.294 0L94.0983 11.6912H154.49L124.294 0Z" fill="#263238"/>
<path d="M0 0L25.3183 10.3409L52.9851 0.259661L0 0Z" fill="#4CAF4F"/>
<path d="M59.128 0.905762L85.6851 11.1889H32.5193L59.128 0.905762Z" fill="#4CAF4F"/>
<path d="M92.5243 13.4341L119.107 24H64.6768L91.6983 13.4341H92.5243Z" fill="#4CAF4F"/>
<path d="M98.2794 12.7935L124.294 23.1978L150.671 12.7935H98.2794Z" fill="#4CAF4F"/>
</svg>
